HIERARCHY
ROOT pelvis
{
  OFFSET 0 100 0
  CHANNELS 6 Xposition Yposition Zposition Zrotation Xrotation Yrotation
  JOINT pelvis_right_femur
  {
    OFFSET -10.78128 -3.44521 -0.5502486
    CHANNELS 3 Zrotation Xrotation Yrotation
    JOINT right_femur_tibia
    {
      OFFSET -0.8047443 -44.0398 -0.1307829
      CHANNELS 3 Zrotation Xrotation Yrotation
      JOINT right_tibia_foot
      {
        OFFSET 3.006224 -47.83518 -5
        CHANNELS 3 Zrotation Xrotation Yrotation
        End Site
        {
          OFFSET 0 -5 15
        }
      }
    }
  }
  JOINT pelvis_left_femur
  {
    OFFSET 10.78128 -3.44521 -0.5502486
    CHANNELS 3 Zrotation Xrotation Yrotation
    JOINT left_femur_tibia
    {
      OFFSET 0.8047443 -44.0398 -0.1307829
      CHANNELS 3 Zrotation Xrotation Yrotation
      JOINT left_tibia_foot
      {
        OFFSET -4.370144 -48.10324 -4.275266
        CHANNELS 3 Zrotation Xrotation Yrotation
        End Site
        {
          OFFSET 0 -5 15
        }
      }
    }
  }
  JOINT pelvis_spine1
  {
    OFFSET 0 6.468898 -3.129235
    CHANNELS 3 Zrotation Xrotation Yrotation
    JOINT spine1
    {
      OFFSET 0 23.15396 4.99043
      CHANNELS 3 Zrotation Xrotation Yrotation
      JOINT spine2
      {
        OFFSET 0 20.79997 -5.064912
        CHANNELS 3 Zrotation Xrotation Yrotation
        JOINT neck
        {
          OFFSET 0 14.38658 9.616178
          CHANNELS 3 Zrotation Xrotation Yrotation
          End Site
          {
            OFFSET 0 20 0
          }
        }
      }
      JOINT right_manubrium
      {
        OFFSET -5.722621 16.35077 3.967754
        CHANNELS 3 Zrotation Xrotation Yrotation
        JOINT right_clavicle
        {
          OFFSET -13.16364 1.694482 -4.693211
          CHANNELS 3 Zrotation Xrotation Yrotation
          JOINT right_humerus
          {
            OFFSET -28.5034 -0.3100689 -2.792744
            CHANNELS 3 Zrotation Xrotation Yrotation
            JOINT right_radius
            {
              OFFSET -25.15693 0.02248979 -1.271978
              CHANNELS 3 Zrotation Xrotation Yrotation
              End Site
              {
                OFFSET -15 0 0
              }
            }
          }
        }
      }
      JOINT left_manubrium
      {
        OFFSET 5.722621 16.35077 3.967754
        CHANNELS 3 Zrotation Xrotation Yrotation
        JOINT left_clavicle
        {
          OFFSET 13.16364 1.694482 -4.693211
          CHANNELS 3 Zrotation Xrotation Yrotation
          JOINT left_humerus
          {
            OFFSET 29.39168 -1.063119 -2.237045
            CHANNELS 3 Zrotation Xrotation Yrotation
            JOINT left_radius
            {
              OFFSET 24.59957 -0.9528479 0.9047498
              CHANNELS 3 Zrotation Xrotation Yrotation
              End Site
              {
                OFFSET 15 -0 -0
              }
            }
          }
        }
      }
    }
  }
}
MOTION
Frames: 7
Frame Time: 0.0416666666667
0 103.5113 0 0.7609418 -1.098319 -0.1653356 3.345221 -15.41525 9.634457 -0 37.13714 -0 -6.051266 -14.29552 -5.116578 -6.476239 11.17828 -23.91012 -0 5.921995 -0 1.946516 -20.0338 24.28813 -3.69276 -3.344483 4.028204 2.738824 9.270891 -8.850021 0.2879153 22.12811 8.409049 4.55363 -24.17427 8.37144 7.59062 -20.16399 12.06287 86.14764 37.23004 -22.41109 -0 0 16.88075 -9.278938 9.629906 5.829353 4.164193 -19.77419 -3.534112 -101.0413 38.41473 30.21698 0 0 -17.88061 -10.26094 15.56392 26.52743
0.2407856 103.4737 1.087399 0.7025904 -1.479216 -0.3360411 3.284751 -15.01229 9.47041 -0 37.98147 -0 -6.204712 -14.19092 -5.173568 -6.410322 11.28138 -23.5692 -0 6.096069 -0 1.985414 -19.75602 24.17929 -3.648536 -3.287876 3.867091 2.722236 9.348536 -8.824879 0.2886193 22.26812 8.290279 4.364848 -24.04955 8.343843 7.316613 -20.153 12.05751 86.37261 36.68548 -22.24933 -0 0 16.56626 -9.461353 9.452108 5.971692 4.032268 -19.76526 -3.623931 -100.4297 38.13373 29.59427 0 0 -17.9226 -9.841436 15.60678 25.96768
0.4468636 103.1794 2.526026 0.6580486 -0.9095521 -0.3670239 3.420608 -18.18579 8.276178 -0 33.77928 -0 -5.843793 -13.02492 -4.814727 -6.324211 12.28626 -23.07559 -0 5.443076 -0 0.8383775 -21.732 22.66711 -3.622007 -2.708826 3.776792 2.733801 8.614407 -8.536994 0.595262 22.30137 8.196316 4.24946 -24.31225 8.67816 6.592402 -19.58639 11.64997 86.6658 35.67805 -22.3494 -0 0 15.89251 -9.159521 9.136945 5.65219 4.571655 -19.82332 -3.275911 -99.35516 38.31106 28.00965 0 0 -19.62838 -9.322795 15.68886 25.46788
0.6203775 102.6779 4.293279 0.5720342 -0.319951 -0.2687161 3.581265 -20.9753 7.292942 -0 30.22787 -0 -5.656602 -11.79443 -4.518185 -6.20545 13.139 -22.56273 -0 5.068815 -0 -0.2451887 -23.26489 21.26598 -3.554574 -2.226016 3.65835 2.764092 8.033104 -8.362211 0.8074314 22.25832 8.162454 4.213213 -24.56824 8.906385 6.093235 -19.07671 11.35145 86.9041 35.06137 -22.50616 -0 0 15.26104 -8.988811 8.976611 5.457824 5.00677 -19.93155 -3.008833 -98.38747 38.39407 26.64297 0 0 -21.09204 -8.893865 15.68306 25.07479
0.7602865 102.0017 6.420593 0.4252086 0.388326 -0.03966935 3.80648 -23.84412 6.376067 -0 26.7433 -0 -5.583283 -10.36835 -4.231487 -6.032837 13.97058 -21.98547 -0 4.917904 -0 -1.460084 -24.61151 19.73776 -3.429328 -1.748703 3.499755 2.810794 7.483239 -8.248661 0.9755129 22.13889 8.173329 4.240728 -24.85773 9.082864 5.733098 -18.53351 11.09827 87.09828 34.71444 -22.70915 -0 0 14.60129 -8.87147 8.932615 5.330286 5.413204 -20.06865 -2.761231 -97.41 38.41722 25.30957 0 0 -22.50877 -8.482973 15.59929 24.73508
0.8654221 101.187 8.953809 0.1949293 1.16695 0.3224451 4.102511 -26.70531 5.514949 -0 23.44999 -0 -5.657563 -8.751013 -3.96652 -5.783943 14.77166 -21.28511 -0 5.122602 -0 -2.842383 -25.65742 18.0286 -3.219976 -1.269673 3.276177 2.868468 6.976986 -8.196272 1.096473 21.95688 8.208748 4.311459 -25.14921 9.186556 5.49869 -17.94595 10.89286 87.26054 34.58686 -22.93148 -0 0 13.88074 -8.839521 8.997064 5.296265 5.762137 -20.22313 -2.555274 -96.35859 38.33246 23.9503 0 0 -23.83598 -8.04734 15.42761 24.4007
0.9355262 100.2842 11.95188 -0.1465018 1.98023 0.8151128 4.497687 -29.44457 4.731198 -0 20.48339 -0 -5.894054 -7.009934 -3.732273 -5.436962 15.51336 -20.43264 -0 5.879176 -0 -4.40146 -26.24313 16.12234 -2.893283 -0.7892561 2.971932 2.934459 6.520827 -8.200845 1.169101 21.72326 8.250684 4.404003 -25.41992 9.206446 5.393065 -17.30177 10.73832 87.38551 34.66098 -23.13322 -0 0 13.08377 -8.896933 9.171672 5.369099 6.024836 -20.36483 -2.397504 -95.20821 38.0743 22.54353 0 0 -24.98001 -7.521033 15.16953 23.99769
